<?xml version="1.0" encoding="UTF-8"?><svg id="Layer_3" xmlns="http://www.w3.org/2000/svg" viewBox="0 0 1920 1080"><defs><style>.cls-1{fill:#ebf4f5;stroke-width:0px;}</style></defs><path class="cls-1" d="m2160,360v288s-144.75,0-144.75,144c0,0,0,144-144,144,0,0-144,.95-144,144h-287.25c143.06,0,144-144,144-144,0-144,144-144,144-144,144,0,144-144,144-144,0-144,144-144,144-144,144,0,144-144,144-144Z"/><path class="cls-1" d="m1727.25-72h288.75s-144,0-144,144c0,0,0,144-144,144,0,0-144,0-144,144,0,0,0,144-144,144,0,0-144,0-144,144,0,0,0,144-144,144,0,0-144,0-144,144,0,0-.94,144-144,144h-288.75c0-143.05,144-144,144-144,144,0,144-144,144-144,0-144,144-144,144-144,144,0,144-144,144-144,0-144,144-144,144-144,144,0,144-144,144-144,0-144,144-144,144-144,144,0,144-144,144-144Z"/><path class="cls-1" d="m864-72h288s0,144-144,144c0,0-144,0-144,144,0,0,0,144-144,144,0,0-144,0-144,144,0,0,0,144-144,144,0,0-144,0-144,144,0,0,0,144-144,144C144,936,0,936.95,0,1080v-288c144,0,144-144,144-144,0-144,144-144,144-144,144,0,144-144,144-144,0-144,144-144,144-144,144,0,144-144,144-144,0-144,144-144,144-144Z"/><path class="cls-1" d="m0-72h288.76s-144,0-144,144c0,0,0,144-144,144H0V-72Z"/></svg>